<svg class="gameOverSvg" viewBox="0 0 64 64" width="256" height="256"
    xmlns="http://www.w3.org/2000/svg">
    <rect x="24" y="8" width="16" height="16" fill="#7CB3FF" />
    <rect x="20" y="12" width="4" height="8" fill="#7CB3FF" />
    <rect x="40" y="12" width="4" height="8" fill="#7CB3FF" />
    <rect x="28" y="16" width="2" height="2" fill="black" />
    <rect x="34" y="16" width="2" height="2" fill="black" />
    <rect x="30" y="20" width="4" height="2" fill="black" />
    <rect x="27" y="18" width="1" height="2" fill="blue" />


    <!-- Body (Tilted slightly) -->
    <rect x="22" y="26" width="20" height="16" fill="#0057B7" />

    <!-- Arms (Lowered slightly) -->
    <rect x="16" y="28" width="6" height="6" fill="#7CB3FF" />
    <rect x="42" y="28" width="6" height="6" fill="#7CB3FF" />
    <rect x="14" y="34" width="4" height="6" fill="#7CB3FF" />
    <rect x="46" y="34" width="4" height="6" fill="#7CB3FF" />

    <!-- Legs (Bent to simulate sitting) -->
    <rect x="22" y="42" width="6" height="8" fill="#7CB3FF" />
    <rect x="36" y="42" width="6" height="8" fill="#7CB3FF" />
    <rect x="18" y="50" width="8" height="4" fill="black" />
    <rect x="38" y="50" width="8" height="4" fill="black" />
</svg>